<?xml version="1.0" encoding="utf-8"?>
<!-- Generator: Adobe Illustrator 26.5.0, SVG Export Plug-In . SVG Version: 6.00 Build 0)  -->
<svg version="1.1" id="logo" xmlns="http://www.w3.org/2000/svg" xmlns:xlink="http://www.w3.org/1999/xlink" x="0px" y="0px"
	 viewBox="0 0 1080 720" style="enable-background:new 0 0 1080 720;" xml:space="preserve">
<style type="text/css">
	.st0{fill:#BF0000;}
</style>
<polygon id="shape" class="st0" points="868.6,468.7 216,468.7 268,520.7 "/>
<path id="n" class="st0" d="M973.3,435.5V331.4c0-19.5,13.7-35.8,33.2-35.8s33.2,16.3,33.2,35.8v104.1h40.3V331.4
	c0-42.9-29.3-77.4-72.2-77.4c-19.5,0-34.5,11.1-34.5,11.1v-7.2H933v177h40.3V435.5z"/>
<path id="e" class="st0" d="M839.9,253.3c-46.8,0-80,41-80,93c0,54.7,41.6,93,83.9,93c21.5,0,48.1-7.2,70.9-39.7L879,378.9
	c-27.3,40.3-73.5,20.2-78.7-20.8H916C926.5,295.6,885.5,253.3,839.9,253.3z M875.1,323.6h-72.2C811.3,282.6,867.3,280,875.1,323.6z"
	/>
<path id="t" class="st0" d="M746.9,393.2c-3.9,2.6-8.5,4.6-13.7,4.6c-6.5,0-18.9-5.2-18.9-21.5v-76.1h34.5v-42.3h-34.5v-44.2H674
	v44.2h-21.5v42.3H674v76.1c0,39.7,29.9,63.1,59.9,63.1c11.1,0,26.7-3.9,39-11.1L746.9,393.2z"/>
<path id="u" class="st0" d="M598.6,257.9V362c0,19.5-13.7,35.8-33.2,35.8s-33.2-16.3-33.2-35.8V257.9h-40.3V362
	c0,42.9,29.3,77.4,72.2,77.4c19.5,0,34.5-11.1,34.5-11.1v6.5h40.3v-177H598.6z"/>
<polygon id="k" class="st0" points="416.4,341.1 485.3,257.9 429.4,257.9 380.6,319.7 380.6,199.3 339.6,199.3 339.6,435.5 
	380.6,435.5 380.6,362.6 440.5,435.5 496.4,435.5 "/>
<path id="a" class="st0" d="M276.5,257.9v7.8c-12.4-7.8-22.8-12.4-37.7-12.4c-45.5,0-80.7,41.6-80.7,93s34.5,93,80.7,93
	c15,0,26-4.6,37.7-12.4v7.8h40.3v-177H276.5z M238.1,397.1c-22.8,0-39-22.1-39-50.1s16.3-50.1,39-50.1s38.4,22.1,38.4,50.1
	C277.2,375,260.9,397.1,238.1,397.1z"/>
<path id="R" class="st0" d="M42.3,435.5v-69h29.3l51.4,68.3h52.7l-62.5-82.6c19.5-13.7,31.9-36.4,31.9-62.5
	c0-42.3-34.5-76.1-76.1-76.1H0v221.2h42.3V435.5z M42.3,255.9h27.3c18.9,0,34.5,15.6,34.5,34.5s-15.6,34.5-34.5,34.5H42.3V255.9z"/>
</svg>
