<?xml version="1.0" encoding="utf-8"?>
<!-- Generator: Adobe Illustrator 26.5.0, SVG Export Plug-In . SVG Version: 6.00 Build 0)  -->
<svg version="1.1" id="Layer_1" xmlns="http://www.w3.org/2000/svg" xmlns:xlink="http://www.w3.org/1999/xlink" x="0px" y="0px"
	 viewBox="0 0 1080 720" style="enable-background:new 0 0 1080 720;" xml:space="preserve">
<path d="M211.3,377.8c14.1-17.4,20.8-39.5,18.9-61.7c-21.7,2.2-41.9,12.6-56.2,29.1c-14.3,16.1-21.7,37.1-20.2,58.6
	C175.7,404.7,197.2,394.9,211.3,377.8"/>
<path d="M211.3,230.1c13.7-16.9,20.4-38.6,18.9-60.4c-21.7,2.2-41.9,12.6-56.2,29.1c-14.3,16.1-21.7,37.1-20.2,58.6
	C176.1,258.1,197.4,247.9,211.3,230.1 M229.8,261.1c-31.3-2-58,17.8-72.3,17.8c-14.3,0-37.8-16.9-62.7-16.5
	c-33,0.9-63,19.3-78.6,48.2c-33.9,58.2-8.9,145,24.1,191.5c15.8,24.1,35,48.2,60.4,48.2s33.2-15.4,62.3-15.4s37.3,15.4,62.7,15
	c25.4-0.4,42.6-24.1,58.4-46.9c11.3-16.5,20-34.7,26.1-53.8c-30.8-13.7-50.6-44.3-50.4-77.9c0.4-29.5,16.1-56.9,41.2-72.3
	c-16.1-22.8-41.9-36.9-69.7-37.8 M476.6,230.3v60.1h48.2v41.5h-48.2V473c0,21.9,9.6,32.1,31,32.1c5.9,0,11.5-0.4,17.4-1.3v41.2
	c-9.6,1.7-19.3,2.6-29.1,2.4c-51.9,0-72.3-19.5-72.3-69V332.5h-36.5v-42.1h37.1v-60.1H476.6z M701.3,546.8h-56l-92.5-256.4h56
	l64.3,204.5l65.1-204.5h54.9L701.3,546.8z M1079.7,393.1h-102V290.9H929v102.3H827.4v48H929V544h48.6V441.1h102V393.1z"/>
</svg>
